<?xml version="1.0" encoding="UTF-8"?>
<svg id="Layer_2" data-name="Layer 2" xmlns="http://www.w3.org/2000/svg" xmlns:xlink="http://www.w3.org/1999/xlink" viewBox="0 0 230.38 230.38">
  <defs>
    <style>
      .cls-1 {
        fill: none;
      }

      .cls-2 {
        fill: #28587d;
      }

      .cls-3 {
        fill: #030375;
      }

      .cls-4 {
        fill: #ee2424;
        opacity: 0;
      }

      .cls-5 {
        fill: #6ba9c0;
      }

      .cls-6 {
        fill: #000042;
      }

      .cls-7 {
        clip-path: url(#clippath);
      }
    </style>
    <clipPath id="clippath">
      <circle class="cls-1" cx="115.19" cy="115.19" r="115.19"/>
    </clipPath>
  </defs>
  <g id="Layer_2-2" data-name="Layer 2">
    <g class="cls-7">
      <g>
        <polygon class="cls-5" points="-4.51 127.75 15.28 108.17 42.63 84.07 61.82 103.43 89.98 79.66 115.19 56.81 136.86 77.59 157.68 99.15 228.32 173.07 192.09 210.54 140.88 237.59 44.75 237.59 19.52 207.49 -4.51 127.75"/>
        <path class="cls-2" d="M187.7,81.79s15.85,12.63,31.78,24.84c10.35,7.93,7.67,9.26,10.75,14.85,2.04,3.7,3.28,7.02,4.04,9.43l-11.96,77.6c-.4,2.62-2.19,4.81-4.67,5.74l-107.51,40.27c-1.1.41-2.29.55-3.45.41L2.71,242.29c-3.62-.44-6.36-3.47-6.44-7.12l-2.08-99.48c-.03-1.39.34-2.75,1.05-3.94l5.73-9.47c.33-.55.73-1.05,1.19-1.49l13.1-12.59s.01-.01.03-.02c.11-.07.97-.86.97-.86.97,1.21,1.49,1.83,3.19,3.08,2.23,1.65,7.27,3.85,13.68,4.21,12.83.72,17.68-10.61,23.97-16.06l8.77,1.46h0c3.79-2.27,24.11-20.35,24.11-20.35,0,0,20.12,9.53,25.21,8.69,10.51-1.73,21.15-10.97,21.67-10.76.38.16,11.25,11.52,17.13,17.68,1.81,1.9,6.4,7.91,9.55,9.18.83.33.55.94,1.18.3"/>
        <path class="cls-3" d="M2.38,160.24c3.29.18,17.34-9.76,18.91-11.25s13.3-12.76,14.69-14.32,15.53-15.09,15.53-15.09c0,0,32.73,19.05,32.73,19.05,0,0,36.68-37.52,36.68-37.52,0,0,18.66,19.47,24.18,18.02s12.53-14.31,19.62-14.38l25.85,13.47,22.97-15.85,32.27,24.78-29.72,75.05-42.74,33.02-23.97,4.85h-42.32l-53.24-9.47-33.57-19.03L2.38,160.24Z"/>
        <path class="cls-6" d="M15.88,184.33s14.98-12.8,29.13-11.26,45.49-5.67,51.32-7.88c5.83-2.22,26.29-13.45,35.79-14.15s30.92,7.01,44.1,0,35.8-17.2,41.34-16.92,12.5-10.09,12.5-10.09l8.58,31.45-41.06,55.2-55.2,33.84-117.34-10.54-9.15-49.66Z"/>
        <polygon class="cls-4" points="46.09 216.08 110.36 151.8 28.95 70.39 32.61 66.73 114.02 148.15 187.62 74.55 191.27 78.21 49.75 219.73 46.09 216.08"/>
      </g>
    </g>
  </g>
</svg>